<?xml version="1.0" encoding="utf-8"?>
<!-- Generator: Adobe Illustrator 19.0.0, SVG Export Plug-In . SVG Version: 6.00 Build 0)  -->
<svg version="1.1" id="Layer_1" xmlns="http://www.w3.org/2000/svg" xmlns:xlink="http://www.w3.org/1999/xlink" x="0px" y="0px"
	 viewBox="-551 373 176 55" style="enable-background:new -551 373 176 55;" xml:space="preserve">
<style type="text/css">
	.st0{display:none;}
	.st1{display:inline;}
	.st2{clip-path:url(#SVGID_2_);}
	.st3{display:inline;fill:none;stroke:#393185;stroke-width:9.7441;}
	.st4{display:inline;fill:#434A53;}
	.st5{fill:none;}
	.st6{fill:#242435;}
	.st7{font-family:'KrinkesDecorPERSONALUSE';}
	.st8{font-size:36px;}
	.st9{font-family:'Rockwell';}
	.st10{font-size:24px;}
</style>
<g id="Layer_x0020_1" class="st0">
	<g class="st1">
		<defs>
			<rect id="SVGID_1_" x="-6406" y="-698" width="2530" height="1619"/>
		</defs>
		<clipPath id="SVGID_2_">
			<use xlink:href="#SVGID_1_"  style="overflow:visible;"/>
		</clipPath>
		<g class="st2">
		</g>
	</g>
	<path class="st3" d="M-2915,757h351c4,0,7,3,7,7v20c0,5-2,6-6,8l-115,57c-5,2-9,3-14,3h-223c-4,0-7-3-7-7v-81
		C-2922,760-2919,757-2915,757z M-2915,875h351c4,0,7,3,7,6v20c0,5-2,7-6,9l-115,56c-5,3-9,4-14,4h-52v268c-51,0-105,0-179-1
		c-73-6-143-23-188-63c-71-64-60-178-60-203c0-1,2-3,4-3l130,1c4,0,6,1,6,5c-1,17-1,73,20,97c27,29,75,24,89,23V908v-27
		C-2922,878-2919,875-2915,875z"/>
	<g transform="matrix(1 0 -0.208488 1 -3635.39 -680.177)" class="st1">
		
			<text transform="matrix(0.979 0 0 0.979 -385.234 400.0002)" style="fill:#2B2A29; font-family:'MyriadPro-Regular'; font-size:267.7879px;">Fras Jaf</text>
	</g>
	<path class="st4" d="M-518,376h35l0,0c1,0,1,0,1,1v2l0,0c-1,1-1,1-1,1l-11,5c-1,1-1,1-1,1h-1h-22h-1c0-1,0-1,0-1v-8c0-1,0-1,0-1
		l0,0H-518z M-483,377h-35l0,0l0,0l0,0v8l0,0l0,0h22c0,0,0,0,1,0l0,0l0,0l12-6l0,0l0,0V377L-483,377L-483,377z"/>
	<path class="st4" d="M-518,375h35l0,0c0,0,1,0,1,1l0,0c0,0,0,0,0,1v2l0,0v1l0,0l0,0c-1,0-1,0-1,0l0,0l-11,6h-1l0,0l0,0l0,0
		c0,0,0,0-1,0l0,0h-22h-1l0,0l0,0c0,0,0,0-1-1l0,0v-8c0-1,0-1,0-1c1,0,1,0,1,0c0-1,0-1,0-1H-518z M-484,377h-34v7h22l0,0l0,0l0,0
		c1,0,1,0,1,0l0,0l0,0l0,0l0,0l11-5V377z"/>
	<path class="st4" d="M-518,389h35l0,0l0,0l0,0c1,0,1,0,1,1v2c0,0,0,0,0,1c-1,0-1,0-1,0l-11,6c-1,0-1,0-1,0h-1h-5v26l0,0l0,0
		c-3,0-5,0-8,0s-6,0-10,0l0,0c-4,0-7-1-10-2c-4-1-6-2-9-4c-6-6-6-16-6-20l0,0c0-1,0-1,1-1l0,0l0,0h13l0,0c0,0,0,0,1,0v1l0,0
		c0,1,0,3,0,4c0,2,1,4,2,5c2,3,6,2,8,2v-18v-2c0-1,0-1,0-1l0,0H-518z M-483,390h-35l0,0l0,0l0,0v2v19l0,0h-1l0,0c-2,0-6,1-9-2
		c-1-1-2-4-2-5c0-2,0-4,0-5l0,0l0,0l0,0h-13l0,0c0,4,0,14,6,19c2,2,5,4,8,5s7,1,10,1l0,0c4,0,7,0,10,0s5,0,7,0v-26l0,0h1h5
		c0,0,0,0,1,0l0,0l0,0l12-6l0,0l0,0V390L-483,390L-483,390L-483,390z M-530,399L-530,399L-530,399L-530,399L-530,399z M-530,399
		L-530,399L-530,399z"/>
	<path class="st4" d="M-518,388h35l0,0c0,0,0,0,1,0l0,0v1l0,0l0,0l0,0v1v2l0,0v1l0,0c-1,0-1,0-1,0l0,0l-11,6h-1l0,0l0,0c0,0,0,0-1,0
		l0,0h-4v26l0,0l0,0v1h-1l0,0l0,0c-1,0-3,0-4,0s-3,0-4,0c-2,0-3,0-5,0h-5l0,0l0,0l0,0c-2,0-4-1-5-1l0,0c-2,0-4-1-5-1c-2-1-4-1-5-2
		c-2-1-3-2-4-3c-3-3-5-7-6-11c0-3,0-7,0-9l0,0c0-1,0-1,0-1l0,0c0,0,0,0,1-1l0,0h1l0,0h11l0,0h1l0,0c1,1,1,1,1,1l0,0l0,0l0,0v1v1h1
		h-1c0,0,0,0,0,1l0,0c0,1,1,1,1,2s0,2,0,3s1,1,1,2l0,0c1,1,3,1,4,2c1,0,2,0,3,0v-18v-2v-1c1,0,1,0,1,0c0-1,0-1,0-1H-518z M-484,390
		h-34v2v19l0,0v1l0,0h-1l0,0c-2,0-6,0-9-3l0,0c-1-1-1-1-2-2c0-1,0-2,0-3s0-2,0-3c-1-1-1-1-1-2l0,0l0,0h-11l0,0l0,0c0,2-1,5,0,9
		c1,3,2,7,5,10c1,1,2,2,4,2c1,1,3,2,4,2l0,0c2,1,3,1,5,1c2,1,3,1,5,1l0,0h5c2,0,3,0,5,0h4l0,0c1,0,2,0,3,0v-26l0,0l0,0v-1l0,0h1h5
		l0,0l0,0l0,0l0,0c1,0,1,0,1,0l0,0l0,0l0,0l0,0l11-5V390z"/>
	<path class="st4" d="M-464,415c0-2,1-4,1-6s0-6,0-10s0-6,0-7v-2c4,0,7,0,10,0h5h3c0,2,0,3,0,4h-3h-1h-1h-3h-4v6l3,1c2,0,4,0,5,0
		l2-1c0,2,0,3,0,4c-2,0-4,0-5,0c-2,0-4,0-6,0v9v1v1h-3C-461,415-462,415-464,415z M-441,393c0-1,0-2,0-3l0,0c1,0,2,0,3,0s1,0,2,0
		c0,0,0,0,0,1v2c-1,0-2,0-2,0C-439,393-440,393-441,393z M-442,415c0-2,0-3,0-4c0-2,0-5,0-7c1-3,1-5,1-8c1,0,2,0,2,0c1,0,2,0,3,0
		c0,2,0,5,0,7c0,1,0,4,0,6c-1,3-1,5-1,6c-1,0-2,0-2,0C-440,415-441,415-442,415z M-432,415v-9l1-5c0-1,0-2,0-3c0,0,0-1,0-2
		c1,0,2,0,2,0c1,0,2,0,3,0v3c0-1,1-1,1-2h1c0-1,1-1,1-1c1,0,1,0,2,0c0,0,1,0,2,0c0,1,0,3,0,5c-1-1-2-1-2-1c-1,0-2,0-2,1
		c-1,0-1,0-2,1c0,0-1,0-1,1s0,1,0,2s-1,2-1,4c0,1,0,3,0,4s0,1,0,2c-1,0-2,0-2,0C-430,415-431,415-432,415z M-416,400l1-1
		c0-1,0-1,0-2c2,0,3-1,4-1c2,0,3,0,4,0s3,0,4,0c1,1,2,1,3,2c0,1,1,2,1,3s-1,2-1,5s0,6,0,9c-1,0-2,0-3,0c0,0-1,0-2,0c0-1,0-3,0-5v-5
		c0,1-1,1-1,1s0,0-1,0c0,1-1,1-1,1c-1,0-2,0-2,1c-1,0-1,0-2,0v1c-1,0-1,0-1,1l0,0c0,1,0,1,0,2c1,0,1,0,1,1c1,0,1,0,2,0h1
		c1,0,1,0,2-1c0,1,0,2-1,3s-1,1-2,1h-1c-2,0-3,0-4-1c-1,0-2-1-3-2c0-1,0-2,0-3v-1c0-1,0-1,1-2l1-1c1,0,2-1,3-1s2-1,4-1c1,0,1,0,2-1
		c0,0,0,0,1,0c0,0,0,0,1-1l0,0v-1v-1c-1-1-1-1-2-1h-1C-410,399-413,399-416,400z M-396,415v-4c1,0,2,1,3,1s1,0,2,0s1,0,2,0
		c0,0,1,0,1-1c0,0,0,0,0-1l0,0v-1l0,0c0,0,0,0-1-1l0,0l-1-1c-1-1-2-1-3-2l-1-1c0-1-1-1-1-2v-1c0-1,0-2,1-3c0-1,1-1,2-2c1,0,3,0,4,0
		c2,0,3,0,6,0v4c-2,0-3-1-4-1s-2,1-2,1c-1,0-1,0-1,0c-1,1-1,1-1,1c0,1,0,1,0,1s1,0,1,1l0,0c1,0,1,1,2,1c1,1,1,2,2,2c1,1,1,1,1,1
		c1,1,1,1,1,2s1,1,1,2s-1,1-1,2c-1,1-2,2-3,2c-1,1-2,1-4,1c-1,0-1,0-3,0C-394,416-395,415-396,415z"/>
</g>
<rect x="-547.8" y="386" class="st5" width="69.3" height="50.3"/>
<text transform="matrix(1 0 0 1 -547.75 405.6919)" class="st6 st7 st8">M.</text>
<rect x="-478.5" y="391.5" class="st5" width="102" height="25.5"/>
<text transform="matrix(1 0 0 1 -478.5 407.7959)" class="st6 st9 st10">Otmane</text>
</svg>
