<?xml version="1.0" encoding="utf-8"?>
<!-- Generator: Adobe Illustrator 19.0.0, SVG Export Plug-In . SVG Version: 6.00 Build 0)  -->
<svg version="1.1" xmlns="http://www.w3.org/2000/svg" xmlns:xlink="http://www.w3.org/1999/xlink" x="0px" y="0px"
	 viewBox="-551 373 176 55" style="enable-background:new -551 373 176 55;" xml:space="preserve">
<style type="text/css">
	.st0{display:none;}
	.st1{display:inline;fill:#212121;}
	.st2{display:inline;}
	.st3{clip-path:url(#SVGID_2_);}
	.st4{display:inline;fill:none;stroke:#393185;stroke-width:9.7441;}
	.st5{display:inline;fill:#FEFEFE;}
	.st6{fill:#FFFFFF;}
</style>
<g id="Layer_2" class="st0">
	<rect x="-551" y="373" class="st1" width="176" height="55"/>
</g>
<g id="Layer_1">
	<g id="Layer_x0020_1" class="st0">
		<g class="st2">
			<defs>
				<rect id="SVGID_1_" x="-6406" y="-698" width="2530" height="1619"/>
			</defs>
			<clipPath id="SVGID_2_">
				<use xlink:href="#SVGID_1_"  style="overflow:visible;"/>
			</clipPath>
			<g class="st3">
			</g>
		</g>
		<path class="st4" d="M-2915,757h351c4,0,7,3,7,7v20c0,5-2,6-6,8l-115,57c-5,2-9,3-14,3h-223c-4,0-7-3-7-7v-81
			C-2922,760-2919,757-2915,757z M-2915,875h351c4,0,7,3,7,6v20c0,5-2,7-6,9l-115,56c-5,3-9,4-14,4h-52v268c-51,0-105,0-179-1
			c-73-6-143-23-188-63c-71-64-60-178-60-203c0-1,2-3,4-3l130,1c4,0,6,1,6,5c-1,17-1,73,20,97c27,29,75,24,89,23V908v-27
			C-2922,878-2919,875-2915,875z"/>
		<g transform="matrix(1 0 -0.208488 1 -3635.39 -680.177)" class="st2">
			
				<text transform="matrix(0.979 0 0 0.979 -385.234 400.0002)" style="fill:#2B2A29; font-family:'MyriadPro-Regular'; font-size:267.7879px;">Fras Jaf</text>
		</g>
		<path class="st5" d="M-518,376h35l0,0c1,0,1,0,1,1v2l0,0c-1,1-1,1-1,1l-11,5c-1,1-1,1-1,1h-1h-22h-1c0-1,0-1,0-1v-8c0-1,0-1,0-1
			l0,0H-518z M-483,377h-35l0,0l0,0l0,0v8l0,0l0,0h22c0,0,0,0,1,0l0,0l0,0l12-6l0,0l0,0V377L-483,377L-483,377z"/>
		<path class="st5" d="M-518,375h35l0,0c0,0,1,0,1,1l0,0c0,0,0,0,0,1v2l0,0v1l0,0l0,0c-1,0-1,0-1,0l0,0l-11,6h-1l0,0l0,0l0,0
			c0,0,0,0-1,0l0,0h-22h-1l0,0l0,0c0,0,0,0-1-1l0,0v-8c0-1,0-1,0-1c1,0,1,0,1,0c0-1,0-1,0-1H-518z M-484,377h-34v7h22l0,0l0,0l0,0
			c1,0,1,0,1,0l0,0l0,0l0,0l0,0l11-5V377z"/>
		<path class="st5" d="M-518,389h35l0,0l0,0l0,0c1,0,1,0,1,1v2c0,0,0,0,0,1c-1,0-1,0-1,0l-11,6c-1,0-1,0-1,0h-1h-5v26l0,0l0,0
			c-3,0-5,0-8,0s-6,0-10,0l0,0c-4,0-7-1-10-2c-4-1-6-2-9-4c-6-6-6-16-6-20l0,0c0-1,0-1,1-1l0,0l0,0h13l0,0c0,0,0,0,1,0v1l0,0
			c0,1,0,3,0,4c0,2,1,4,2,5c2,3,6,2,8,2v-18v-2c0-1,0-1,0-1l0,0H-518z M-483,390h-35l0,0l0,0l0,0v2v19l0,0h-1l0,0c-2,0-6,1-9-2
			c-1-1-2-4-2-5c0-2,0-4,0-5l0,0l0,0l0,0h-13l0,0c0,4,0,14,6,19c2,2,5,4,8,5s7,1,10,1l0,0c4,0,7,0,10,0s5,0,7,0v-26l0,0h1h5
			c0,0,0,0,1,0l0,0l0,0l12-6l0,0l0,0V390L-483,390L-483,390L-483,390z M-530,399L-530,399L-530,399L-530,399L-530,399z M-530,399
			L-530,399L-530,399z"/>
		<path class="st5" d="M-518,388h35l0,0c0,0,0,0,1,0l0,0v1l0,0l0,0l0,0v1v2l0,0v1l0,0c-1,0-1,0-1,0l0,0l-11,6h-1l0,0l0,0
			c0,0,0,0-1,0l0,0h-4v26l0,0l0,0v1h-1l0,0l0,0c-1,0-3,0-4,0s-3,0-4,0c-2,0-3,0-5,0h-5l0,0l0,0l0,0c-2,0-4-1-5-1l0,0c-2,0-4-1-5-1
			c-2-1-4-1-5-2c-2-1-3-2-4-3c-3-3-5-7-6-11c0-3,0-7,0-9l0,0c0-1,0-1,0-1l0,0c0,0,0,0,1-1l0,0h1l0,0h11l0,0h1l0,0c1,1,1,1,1,1l0,0
			l0,0l0,0v1v1h1h-1c0,0,0,0,0,1l0,0c0,1,1,1,1,2s0,2,0,3s1,1,1,2l0,0c1,1,3,1,4,2c1,0,2,0,3,0v-18v-2v-1c1,0,1,0,1,0c0-1,0-1,0-1
			H-518z M-484,390h-34v2v19l0,0v1l0,0h-1l0,0c-2,0-6,0-9-3l0,0c-1-1-1-1-2-2c0-1,0-2,0-3s0-2,0-3c-1-1-1-1-1-2l0,0l0,0h-11l0,0l0,0
			c0,2-1,5,0,9c1,3,2,7,5,10c1,1,2,2,4,2c1,1,3,2,4,2l0,0c2,1,3,1,5,1c2,1,3,1,5,1l0,0h5c2,0,3,0,5,0h4l0,0c1,0,2,0,3,0v-26l0,0l0,0
			v-1l0,0h1h5l0,0l0,0l0,0l0,0c1,0,1,0,1,0l0,0l0,0l0,0l0,0l11-5V390z"/>
		<path class="st5" d="M-464,415c0-2,1-4,1-6s0-6,0-10s0-6,0-7v-2c4,0,7,0,10,0h5h3c0,2,0,3,0,4h-3h-1h-1h-3h-4v6l3,1c2,0,4,0,5,0
			l2-1c0,2,0,3,0,4c-2,0-4,0-5,0c-2,0-4,0-6,0v9v1v1h-3C-461,415-462,415-464,415z M-441,393c0-1,0-2,0-3l0,0c1,0,2,0,3,0s1,0,2,0
			c0,0,0,0,0,1v2c-1,0-2,0-2,0C-439,393-440,393-441,393z M-442,415c0-2,0-3,0-4c0-2,0-5,0-7c1-3,1-5,1-8c1,0,2,0,2,0c1,0,2,0,3,0
			c0,2,0,5,0,7c0,1,0,4,0,6c-1,3-1,5-1,6c-1,0-2,0-2,0C-440,415-441,415-442,415z M-432,415v-9l1-5c0-1,0-2,0-3c0,0,0-1,0-2
			c1,0,2,0,2,0c1,0,2,0,3,0v3c0-1,1-1,1-2h1c0-1,1-1,1-1c1,0,1,0,2,0c0,0,1,0,2,0c0,1,0,3,0,5c-1-1-2-1-2-1c-1,0-2,0-2,1
			c-1,0-1,0-2,1c0,0-1,0-1,1s0,1,0,2s-1,2-1,4c0,1,0,3,0,4s0,1,0,2c-1,0-2,0-2,0C-430,415-431,415-432,415z M-416,400l1-1
			c0-1,0-1,0-2c2,0,3-1,4-1c2,0,3,0,4,0s3,0,4,0c1,1,2,1,3,2c0,1,1,2,1,3s-1,2-1,5s0,6,0,9c-1,0-2,0-3,0c0,0-1,0-2,0c0-1,0-3,0-5v-5
			c0,1-1,1-1,1s0,0-1,0c0,1-1,1-1,1c-1,0-2,0-2,1c-1,0-1,0-2,0v1c-1,0-1,0-1,1l0,0c0,1,0,1,0,2c1,0,1,0,1,1c1,0,1,0,2,0h1
			c1,0,1,0,2-1c0,1,0,2-1,3s-1,1-2,1h-1c-2,0-3,0-4-1c-1,0-2-1-3-2c0-1,0-2,0-3v-1c0-1,0-1,1-2l1-1c1,0,2-1,3-1s2-1,4-1c1,0,1,0,2-1
			c0,0,0,0,1,0c0,0,0,0,1-1l0,0v-1v-1c-1-1-1-1-2-1h-1C-410,399-413,399-416,400z M-396,415v-4c1,0,2,1,3,1s1,0,2,0s1,0,2,0
			c0,0,1,0,1-1c0,0,0,0,0-1l0,0v-1l0,0c0,0,0,0-1-1l0,0l-1-1c-1-1-2-1-3-2l-1-1c0-1-1-1-1-2v-1c0-1,0-2,1-3c0-1,1-1,2-2c1,0,3,0,4,0
			c2,0,3,0,6,0v4c-2,0-3-1-4-1s-2,1-2,1c-1,0-1,0-1,0c-1,1-1,1-1,1c0,1,0,1,0,1s1,0,1,1l0,0c1,0,1,1,2,1c1,1,1,2,2,2c1,1,1,1,1,1
			c1,1,1,1,1,2s1,1,1,2s-1,1-1,2c-1,1-2,2-3,2c-1,1-2,1-4,1c-1,0-1,0-3,0C-394,416-395,415-396,415z"/>
	</g>
	<g>
		<path class="st6" d="M-472.3,373c-1.7,2.5-10.8,13.7-12.4,16c-0.7,1-1.4,2-2.1,3.1c-0.7,1.1-1.4,2.1-2.1,3.1
			c-0.7,1-1.3,1.9-1.9,2.8c-0.6,0.9-1.1,1.7-1.6,2.4c-0.6,0.9-1.2,1.7-1.8,2.6c-0.6,0.8-1.2,1.6-1.7,2.4c-0.5,0.8-0.9,1.5-1.3,2.1
			c-0.4,0.6-0.6,1.2-0.7,1.7c-0.1,0.4-0.1,0.8,0.2,1c0.2,0.2,0.5,0.4,0.9,0.4c0.2,0,0.5-0.1,0.9-0.2c0.3-0.1,0.7-0.3,1-0.6
			c0.3-0.3,0.7-0.6,1-0.9c0.3-0.4,0.6-0.8,0.8-1.3l0.8,1.4c-0.3,0.7-0.7,1.4-1.2,2.1c-0.5,0.6-1,1.2-1.6,1.7c-0.6,0.5-1.3,0.9-2,1.2
			c-0.7,0.3-1.4,0.4-2.2,0.4c-1.2,0-2.1-0.2-2.9-0.6s-1.3-1.1-1.5-2c-0.2-0.9-0.1-2.1,0.4-3.5c0.5-1.4,1.4-3.2,2.8-5.2
			c0.6-0.8,1.2-1.8,1.9-2.8c0.7-1,1.4-2.1,2.2-3.3c0.7-1.2,1.5-2.3,2.3-3.5c0.8-1.2,1.5-2.3,2.3-3.5c0.7-1.1,1.4-2.2,2-3.1
			c0.6-1,1.2-1.8,1.7-2.6c-0.7,0.2-1.4,0.7-2.3,1.4c-0.8,0.8-1.7,1.7-2.6,2.8c-0.9,1.1-1.9,2.4-3,3.8c-1,1.4-2.1,2.8-3.2,4.3
			c-1.5,2-3,3.9-4.4,5.7c-1.4,1.8-2.7,3.5-4,4.9s-2.6,2.6-3.9,3.4c-1.3,0.9-2.7,1.3-4.1,1.3c-0.9,0-1.6-0.2-2.1-0.5
			s-0.9-0.8-1.1-1.4c-0.2-0.6-0.2-1.3-0.1-2.1s0.3-1.6,0.7-2.6c0.3-0.6,0.5-1.3,0.8-1.8c0.3-0.6,0.6-1.2,1-1.9
			c0.4-0.7,0.9-1.5,1.5-2.4c0.6-0.9,1.4-2.1,2.3-3.4c0.6-0.8,1.2-1.8,1.9-2.8c0.7-1,1.4-2,1.9-3c0.6-1,1-1.9,1.3-2.7
			c0.3-0.8,0.3-1.5,0-1.9c-0.9,1-1.9,2.2-3,3.6c-1.1,1.5-2.2,3-3.3,4.8c-1.2,1.7-2.4,3.6-3.6,5.5c-1.2,1.9-2.5,3.8-3.8,5.6
			s-2.6,3.6-3.9,5.2c-1.3,1.7-2.6,3.1-4,4.4c-1.3,1.3-2.6,2.3-3.9,3s-2.6,1.1-3.8,1.1c-1.9,0-3.4-0.4-4.6-1.2
			c-1.1-0.8-1.9-1.8-2.3-3c-0.4-1.2-0.5-2.5-0.3-3.9s0.7-2.7,1.4-3.9c0.7-1.2,1.6-2.2,2.8-3c1.1-0.8,2.4-1.2,3.9-1.2
			c0.7,0,1.2,0.2,1.5,0.5c0.3,0.3,0.5,0.7,0.6,1.2c0.1,0.5,0,1-0.2,1.5c-0.2,0.5-0.5,1-0.9,1.5c-0.4,0.5-0.9,0.9-1.5,1.2
			c-0.6,0.3-1.2,0.5-2,0.5c-0.6,0-1.1-0.2-1.4-0.7c-0.3-0.5-0.3-1-0.2-1.7c-0.6,0.6-1.1,1.3-1.5,2c-0.4,0.8-0.6,1.5-0.7,2.3
			c-0.1,0.8-0.1,1.6,0.1,2.3c0.2,0.8,0.4,1.4,0.8,2c0.4,0.6,0.9,1.1,1.5,1.4c0.6,0.4,1.4,0.5,2.3,0.5c1.3,0,2.7-0.5,4.1-1.4
			c1.4-0.9,2.8-2.2,4.2-3.7c1.4-1.5,2.8-3.3,4.3-5.3c1.4-2,2.8-4,4.2-6.1c1.4-2.1,2.8-4.2,4.1-6.2c1.3-2.1,2.6-3.9,3.9-5.6
			c1.2-1.7,2.4-3.1,3.6-4.3s2.2-1.9,3.2-2.2l15.3-8.7c0.5,0.6-8.5,10.4-9.2,12.1c-0.6,1.7-2,4-4,6.9c-1.1,1.5-2,2.8-2.7,3.9
			c-0.8,1.1-1.5,2.1-2.1,3.1c-0.6,0.9-1.3,1.8-1.8,2.7c-0.6,0.9-1.2,1.8-1.8,2.8c-0.5,0.7-0.9,1.4-1.2,1.9c-0.4,0.6-0.7,1.1-0.8,1.5
			c-0.2,0.4-0.3,0.7-0.3,1c0,0.2,0.2,0.3,0.5,0.3c0.7,0,1.5-0.4,2.5-1.2c1-0.8,2.1-1.9,3.3-3.4c1.2-1.4,2.6-3.2,4.1-5.2
			c1.5-2,3.2-4.2,5-6.6c1.8-2.4,3.3-4.3,4.4-5.7c1.1-1.4,2-2.5,2.8-3.2c0.7-0.8,1.3-1.3,1.7-1.6c0.4-0.3,0.9-0.5,1.3-0.6L-472.3,373
			z"/>
		<path class="st6" d="M-482.7,405.9c0,0.6-0.2,1.2-0.7,1.7c-0.5,0.5-1,0.7-1.7,0.7c-0.7,0-1.2-0.2-1.7-0.7c-0.5-0.5-0.7-1-0.7-1.7
			c0-0.7,0.2-1.2,0.7-1.7c0.5-0.5,1-0.7,1.7-0.7c0.7,0,1.2,0.2,1.7,0.7C-483,404.7-482.7,405.2-482.7,405.9z"/>
	</g>
	<g>
		<path class="st6" d="M-473.8,401.9c0-2.4,0.8-4.3,2.3-5.9s3.6-2.4,6-2.4c2.5,0,4.6,0.8,6.1,2.4s2.4,3.6,2.4,6
			c0,2.4-0.8,4.5-2.4,6.1s-3.6,2.4-6.1,2.4c-1.6,0-3-0.4-4.4-1.1s-2.3-1.8-3-3.2S-473.8,403.4-473.8,401.9z M-471.1,401.9
			c0,1.8,0.5,3.3,1.6,4.5s2.4,1.8,4.1,1.8c1.7,0,3.1-0.6,4.2-1.9s1.6-2.7,1.6-4.4c0-1.7-0.6-3.2-1.7-4.4s-2.5-1.8-4.2-1.8
			c-1.7,0-3,0.6-4.1,1.8S-471.1,400.2-471.1,401.9z"/>
		<path class="st6" d="M-455,400.8v-2h1.5V397l2.2-2v3.8h2.1v2h-2.1v5.5c0,0.9,0,1.4,0.1,1.6s0.3,0.3,0.7,0.3c0.4,0,0.8-0.1,1.2-0.2
			v2c-0.6,0.2-1.1,0.3-1.7,0.3c-0.7,0-1.2-0.2-1.7-0.5s-0.7-0.7-0.8-1.1s-0.2-1.2-0.2-2.3v-5.6H-455z"/>
		<path class="st6" d="M-445.9,408.1v-7.4h-1.9v-2h4.1v1.4c1.3-1.1,2.7-1.6,3.9-1.6c1.3,0,2.2,0.6,2.7,1.8c1.5-1.2,2.9-1.8,4.1-1.8
			c0.7,0,1.3,0.2,1.8,0.5s0.8,0.7,1,1.2s0.2,1.2,0.2,2.2v5.6h2v2h-4.2v-7.2c0-0.7,0-1.1-0.1-1.4s-0.2-0.5-0.4-0.7
			c-0.2-0.2-0.5-0.3-0.9-0.3c-1,0-2,0.5-3.2,1.5v6.1h1.9v2h-4.2v-7.4c0-0.7-0.1-1.3-0.3-1.6c-0.2-0.3-0.6-0.5-1.1-0.5
			c-0.8,0-1.9,0.5-3.3,1.5v6.1h2v2h-6.2v-2H-445.9z"/>
		<path class="st6" d="M-415.3,408.1v2h-3.9v-1.4c-1.1,1-2.3,1.6-3.6,1.6c-1,0-1.9-0.3-2.7-1s-1.1-1.5-1.1-2.6
			c0-1.1,0.4-1.9,1.2-2.6s1.8-1,2.9-1c1.1,0,2.1,0.3,3.1,1v-1.1c0-0.6-0.1-1-0.2-1.3s-0.4-0.6-0.8-0.8s-0.9-0.4-1.6-0.4
			c-1.1,0-1.9,0.4-2.4,1.3l-2.1-0.6c0.9-1.8,2.6-2.6,4.9-2.6c0.9,0,1.6,0.1,2.2,0.3s1.1,0.5,1.4,0.9s0.5,0.8,0.6,1.2
			c0.1,0.4,0.2,1.1,0.2,2v5.3H-415.3z M-419.4,405.9c-1-0.8-1.9-1.1-2.9-1.1c-0.6,0-1.1,0.2-1.5,0.5s-0.6,0.8-0.6,1.4
			c0,0.5,0.2,1,0.5,1.3s0.9,0.5,1.5,0.5c1.1,0,2.1-0.5,3.1-1.4V405.9z"/>
		<path class="st6" d="M-410.1,398.8v1.4c1.4-1,2.7-1.5,3.9-1.5c0.7,0,1.3,0.2,1.8,0.5s0.8,0.8,0.9,1.3s0.2,1.2,0.2,2.2v5.5h1.9v2
			h-4.1v-7.4c0-0.9-0.1-1.4-0.4-1.7c-0.3-0.3-0.6-0.4-0.9-0.4c-1,0-2.1,0.5-3.3,1.4v6.1h2v2h-6.2v-2h2v-7.4h-2v-2H-410.1z"/>
		<path class="st6" d="M-388.4,405h-9.5c0.1,1,0.6,1.9,1.2,2.5s1.6,1,2.6,1c1.6,0,2.8-0.6,3.7-1.9l2,0.9c-0.6,1-1.5,1.7-2.5,2.2
			s-2.1,0.7-3.2,0.7c-1.7,0-3.2-0.5-4.4-1.6s-1.8-2.5-1.8-4.4c0-1.7,0.6-3.2,1.8-4.3c1.2-1.1,2.6-1.7,4.1-1.7c1.5,0,2.9,0.5,4.1,1.6
			C-389.1,401.2-388.4,402.8-388.4,405z M-390.7,403.4c-0.2-0.8-0.6-1.5-1.2-2.2c-0.7-0.6-1.5-1-2.5-1c-0.9,0-1.7,0.3-2.3,0.9
			c-0.6,0.6-1,1.3-1.2,2.3H-390.7z"/>
	</g>
</g>
</svg>
